# xmcd
#
# Track frame offsets:
#	150
#	23013
#	37981
#	51327
#	71499
#	88986
#	108276
#	125842
#	141285
#	160678
#	180395
#	200762
#	218671
#	232285
#	251974
#	272943
#	289540
#	307958
#	325736
#	341590
#
# Disc length: 4797 seconds
#
# Revision: 0
# Processed by: cddbd v1.4PL0 Copyright (c) Steve Scherf et al.
# Submitted via: EasyCDDAExtractor 4.6.0.1
#
DISCID=3112bb14
DTITLE=Rojo Fama Contrafama - El Color del Amor
DYEAR=2003
DGENRE=Rojo
TTITLE0=Daniel Donoso - Que no me pierda
TTITLE1=Jimena Pereyra - A fuego lento
TTITLE2=Leandro Martínez - Por debajo de la mesa
TTITLE3=Monserrat Bustamante - Dejaría todo
TTITLE4=Mario Guerrero - LLoran las rosas
TTITLE5=Daniela Castillo - No me enseñaste
TTITLE6=Leandro Martínez - Bésame
TTITLE7=Carolina Soto - Tú
TTITLE8=Daniel Donoso - Corazón partío
TTITLE9=Catalina Barrios - Verás
TTITLE10=Miguel Garcés - Atado a tu amor
TTITLE11=Carolina Soto - Si Tú no estas
TTITLE12=Leandro Martínez - De quererte así
TTITLE13=Mario Guerrero - Resumiendo
TTITLE14=Daniela Castillo - Tema de amor de Titanic
TTITLE15=Leandro Martínez y Jimena Pereyra - A Kilómetros
TTITLE16=Mario Guerrero - Completamente enamorados
TTITLE17=Carolina Soto - Pero me acuerdo de ti
TTITLE18=Daniel Donoso - A puro dolor
TTITLE19=Mario Guerrero - Porque te tengo que olvidar
EXTD=
EXTT0=
EXTT1=
EXTT2=
EXTT3=
EXTT4=
EXTT5=
EXTT6=
EXTT7=
EXTT8=
EXTT9=
EXTT10=
EXTT11=
EXTT12=
EXTT13=
EXTT14=
EXTT15=
EXTT16=
EXTT17=
EXTT18=
EXTT19=
PLAYORDER=
